<?xml version="1.0" encoding="utf-8"?>
<!-- Generator: Adobe Illustrator 25.0.0, SVG Export Plug-In . SVG Version: 6.00 Build 0)  -->
<svg version="1.1" id="Слой_1" xmlns="http://www.w3.org/2000/svg" xmlns:xlink="http://www.w3.org/1999/xlink" x="0px" y="0px"
	 viewBox="0 0 21 14.7" style="enable-background:new 0 0 21 14.7;" xml:space="preserve">
<style type="text/css">
	.st0{fill:#1B76D8;}
</style>
<path class="st0" d="M20,8.4c0.6,0,1-0.4,1-1c0-0.6-0.4-1-1-1L20,8.4z M0.3,6.7c-0.4,0.4-0.4,1,0,1.4l6.4,6.4c0.4,0.4,1,0.4,1.4,0
	c0.4-0.4,0.4-1,0-1.4L2.4,7.4l5.7-5.7c0.4-0.4,0.4-1,0-1.4c-0.4-0.4-1-0.4-1.4,0L0.3,6.7z M20,6.4l-19,0l0,2l19,0L20,6.4z"/>
</svg>
