<svg width="40" height="40" viewBox="0 0 40 40" fill="none" xmlns="http://www.w3.org/2000/svg">
<g clip-path="url(#clip0_1613:179)">
<path d="M37.4594 26.9956C36.9581 27.6584 36.5164 28.3812 35.9448 28.9738C33.358 31.655 30.7533 34.3186 28.1198 36.9523C24.7603 40.3109 19.8323 40.804 15.7884 38.8704C15.5529 38.7578 15.3245 38.6276 15.0566 38.4871C15.145 38.3818 15.206 38.2984 15.2778 38.2259C19.7914 33.6192 24.3057 29.0133 28.8193 24.4073C29.2746 23.942 29.7277 23.4746 30.1823 23.0086C31.1324 22.0341 31.307 20.6098 30.6118 19.4985C29.9152 18.385 28.6239 17.9549 27.3449 18.4092C27.2781 18.4326 27.2085 18.448 27.1395 18.467C27.2824 18.3477 27.4196 18.2212 27.5683 18.1107C28.5493 17.3813 29.6717 17.0638 30.8631 16.9973C32.252 16.9204 33.5526 17.2636 34.7469 17.9893C35.8327 18.6499 36.6493 19.5702 37.2439 20.7092C37.6561 21.4986 37.9283 22.3326 38.0109 23.2149C38.105 24.22 38.0209 25.2172 37.6813 26.1799C37.5872 26.4447 37.5319 26.7235 37.4594 26.9956Z" fill="#5890F5"/>
<path d="M2.89042 11.5507L2.89904 11.5207C2.9213 11.4944 2.94356 11.4688 2.96655 11.4424L2.96798 11.441C2.99168 11.4168 3.01538 11.3934 3.03908 11.3693L3.04052 11.3678C3.06421 11.3437 3.08791 11.3203 3.11161 11.2961L3.11233 11.2954C3.13603 11.272 3.16045 11.2486 3.18415 11.2244C4.07393 10.3078 4.96085 9.38745 5.85495 8.47372C7.61729 6.67187 9.3624 4.85172 11.1542 3.08059C12.8361 1.41774 14.8376 0.39793 17.1902 0.0965234C19.4079 -0.188057 21.5135 0.151391 23.5301 1.11121C23.7642 1.22241 23.9789 1.37604 24.2432 1.53406C24.0694 1.72134 23.9351 1.87131 23.7944 2.01543C18.9052 7.0018 14.0146 11.986 9.12684 16.9738C7.94333 18.1816 7.96416 20.0113 9.20584 21.1138C9.96852 21.7912 10.8676 21.9799 11.8472 21.6361C11.9463 21.6017 12.049 21.5798 12.1503 21.5512C12.0698 21.6339 12.0009 21.7327 11.9082 21.7971C10.7003 22.6303 9.37676 23.0188 7.90599 22.9954C6.21115 22.969 4.73894 22.3735 3.53029 21.225C1.53096 19.3265 0.859491 16.9724 1.51229 14.2517C1.60493 13.8654 1.72558 13.4857 1.8333 13.1031C2.04444 12.7439 2.25558 12.3847 2.46743 12.0255L2.46815 12.024C2.49113 11.9984 2.51411 11.9728 2.53709 11.9479L2.53566 11.9487C2.60603 11.8726 2.67641 11.7965 2.74679 11.7204L2.74392 11.727C2.7906 11.6692 2.84087 11.61 2.89042 11.5507Z" fill="#F9FEFF"/>
<path d="M1.83115 13.1045C1.72343 13.4871 1.60278 13.8668 1.51014 14.2531C0.857337 16.9745 1.52881 19.3279 3.52814 21.2264C4.73751 22.3742 6.20971 22.9704 7.90383 22.9968C9.3746 23.0194 10.6982 22.6317 11.9061 21.7985C11.9987 21.7348 12.0677 21.6353 12.1481 21.5526C12.1553 21.5373 12.1668 21.5292 12.1826 21.527L12.2041 21.5131C12.2415 21.4919 12.2788 21.4707 12.3154 21.4495C12.3334 21.4473 12.3456 21.4371 12.3528 21.421C12.5359 21.2659 12.7312 21.124 12.8993 20.9528C15.3503 18.4588 17.7971 15.9605 20.2453 13.4644C20.312 13.3964 20.3867 13.3371 20.4578 13.2742C20.4923 13.3891 20.5095 13.5134 20.5641 13.6166C21.2586 14.9312 21.7045 16.3153 21.8374 17.8136C21.9523 19.1048 21.925 20.3778 21.6227 21.6368C21.3103 22.939 20.8234 24.1673 20.0607 25.2727C19.9968 25.3656 19.9853 25.4965 19.9494 25.6099C18.5691 27.1448 17.0796 28.5267 15.1485 29.3314C10.4324 31.2964 4.92207 29.744 2.08609 25.5009C-0.539466 21.5717 -0.669451 17.4573 1.59416 13.2837C1.62289 13.2303 1.65089 13.1769 1.6789 13.1228C1.72989 13.1169 1.78088 13.1103 1.83115 13.1045Z" fill="#BEE3FF"/>
<path d="M19.9495 25.61C19.9854 25.4966 19.9969 25.3656 20.0608 25.2727C20.8235 24.168 21.3104 22.9397 21.6228 21.6368C21.9251 20.3778 21.9517 19.1041 21.8375 17.8136C21.7046 16.3154 21.2587 14.9305 20.5642 13.6166C20.5096 13.5127 20.4924 13.3891 20.4579 13.2742C21.9502 11.6597 23.7686 10.6143 25.8843 10.13C30.8201 8.99969 35.7689 11.31 38.0426 15.9167C39.8293 19.5372 39.6627 23.168 37.7079 26.7037C37.6469 26.8141 37.542 26.899 37.458 26.9963C37.5305 26.7241 37.5858 26.4454 37.6792 26.1806C38.0189 25.2171 38.1029 24.22 38.0088 23.2155C37.9262 22.3333 37.6541 21.5 37.2418 20.7099C36.6472 19.5709 35.8307 18.6505 34.7448 17.9899C33.5513 17.2642 32.25 16.9211 30.8611 16.9979C29.6704 17.0638 28.5472 17.382 27.5662 18.1114C27.4175 18.2219 27.2804 18.3484 27.1374 18.4677C27.1374 18.4677 27.1382 18.4603 27.1374 18.4603C27.0786 18.4911 27.0197 18.5225 26.9615 18.5533C24.8042 20.7304 22.6461 22.9068 20.4881 25.0832C20.3128 25.261 20.1304 25.4344 19.9495 25.61Z" fill="#9BCDFF"/>
<path d="M1.8312 13.1045C1.78021 13.1103 1.72994 13.1169 1.67896 13.1235C1.94108 12.7584 2.2032 12.3926 2.46533 12.0276C2.25419 12.3861 2.04306 12.7453 1.8312 13.1045Z" fill="#6AA8C6"/>
<path d="M2.74385 11.7219C2.67347 11.798 2.60309 11.8741 2.53271 11.9502C2.60309 11.8741 2.67347 11.798 2.74385 11.7219Z" fill="#6AA8C6"/>
<path d="M2.89059 11.5507C2.84103 11.6099 2.79076 11.6699 2.74121 11.7292C2.79076 11.6692 2.84103 11.6099 2.89059 11.5507Z" fill="#6AA8C6"/>
<path d="M26.9636 18.5518C27.0225 18.521 27.0814 18.4896 27.1396 18.4589C27.0807 18.4896 27.0225 18.521 26.9636 18.5518Z" fill="#2954A1"/>
<path d="M3.1829 11.2251C3.1592 11.2485 3.13478 11.2719 3.11108 11.2961C3.1355 11.2719 3.1592 11.2485 3.1829 11.2251Z" fill="#6AA8C6"/>
<path d="M3.1104 11.2968C3.0867 11.3209 3.06301 11.3443 3.03931 11.3684C3.06372 11.3443 3.0867 11.3202 3.1104 11.2968Z" fill="#6AA8C6"/>
<path d="M3.03863 11.3699C3.01493 11.394 2.99123 11.4174 2.96753 11.4416C2.99123 11.4174 3.01493 11.3933 3.03863 11.3699Z" fill="#6AA8C6"/>
<path d="M2.96643 11.4424C2.94417 11.468 2.92191 11.4943 2.89893 11.5207C2.92119 11.4943 2.94345 11.468 2.96643 11.4424Z" fill="#6AA8C6"/>
<path d="M2.53501 11.9493C2.51203 11.9749 2.48905 12.0006 2.46606 12.0254C2.48905 12.0006 2.51203 11.9749 2.53501 11.9493Z" fill="#6AA8C6"/>
<path d="M12.3562 21.421C12.3485 21.4391 12.3347 21.4493 12.3162 21.4516C12.33 21.4414 12.3431 21.4312 12.3562 21.421Z" fill="#5DC3E2"/>
<path d="M12.207 21.5132L12.1833 21.5285C12.1912 21.5236 12.1991 21.518 12.207 21.5132Z" fill="#5DC3E2"/>
</g>
<defs>
<clipPath id="clip0_1613:179">
<rect width="39.2857" height="40" fill="white"/>
</clipPath>
</defs>
</svg>
