<svg width="32" height="25" viewBox="0 0 32 25" fill="none" xmlns="http://www.w3.org/2000/svg">
<g clip-path="url(#clip0_1427_878)">
<path d="M30.6491 19.6104C30.2743 20.0926 29.9508 20.6172 29.5249 21.0468C27.6113 22.9941 29.1564 21.4578 27.2078 23.3701C25.7089 24.869 21.7881 25.4548 18.7966 24.0509C18.7337 24.0213 18.6789 23.9771 18.6366 23.922C18.5943 23.8669 18.5659 23.8024 18.5537 23.734C18.5414 23.6657 18.5458 23.5953 18.5663 23.529C18.5868 23.4626 18.623 23.4021 18.6717 23.3526C20.203 21.8075 21.3947 20.5959 24.2526 17.7318C24.5898 17.3946 24.9246 17.0548 25.2618 16.7163C25.9638 16.0093 26.0937 14.9676 25.5791 14.167C25.0645 13.3663 24.1089 13.0428 23.1621 13.3763C23.1122 13.3925 23.0609 13.4038 23.0097 13.4175C23.1159 13.3313 23.2171 13.2389 23.327 13.159C24.0527 12.6293 24.8834 12.3983 25.764 12.3508C26.7562 12.2943 27.7425 12.5367 28.5956 13.0465C29.3413 13.4884 29.9591 14.1169 30.388 14.8702C30.7505 15.4809 30.9771 16.1625 31.0525 16.8687C31.1325 17.5957 31.0493 18.3314 30.8089 19.0221C30.7427 19.2057 30.7015 19.4081 30.6491 19.6104Z" fill="#2954A1"/>
<path d="M2.13854 11.3239L2.14476 11.3014L2.19471 11.2452L2.24722 11.194L2.29967 11.1416L2.35213 11.0904C3.00997 10.4242 3.66863 9.75801 4.32814 9.09184C5.63217 7.78406 9.85783 3.52721 11.1831 2.24066C12.3884 1.04075 13.9601 0.277984 15.6485 0.0735217C17.2503 -0.138761 18.8793 0.117195 20.3388 0.810478C20.4022 0.841526 20.4573 0.887332 20.4994 0.944046C20.5415 1.00076 20.5695 1.06674 20.5808 1.13645C20.5922 1.20617 20.5867 1.27759 20.5648 1.34475C20.5429 1.41191 20.5053 1.47284 20.455 1.52244C18.8412 3.14624 9.88277 12.1171 6.7426 15.2622C5.86825 16.1366 5.88202 17.4681 6.80134 18.27C7.05956 18.5086 7.37936 18.6701 7.7246 18.7363C8.06984 18.8025 8.42669 18.7708 8.75484 18.6447C8.82729 18.6198 8.90474 18.6035 8.97843 18.5835C8.92498 18.6489 8.86518 18.7087 8.79985 18.7622C7.93011 19.3588 6.89385 19.6648 5.83953 19.6365C4.63579 19.6373 3.47739 19.1774 2.60194 18.3512C1.12179 16.9772 0.625908 15.2623 1.10305 13.2862C1.17175 13.0052 1.26171 12.7304 1.34165 12.4518L1.81005 11.6699L1.86122 11.615L2.01735 11.4501C2.06482 11.4101 2.09732 11.3664 2.13854 11.3239Z" fill="#5DC3E2"/>
<path d="M1.35544 12.452C1.2755 12.7306 1.18554 13.0054 1.11685 13.2864C0.634704 15.2624 1.13059 16.9724 2.61573 18.3514C3.49118 19.1776 4.64958 19.6374 5.85332 19.6367C6.90764 19.665 7.9439 19.3589 8.81365 18.7623C8.87897 18.7089 8.93883 18.649 8.99229 18.5837C8.99475 18.5787 8.99844 18.5743 9.00302 18.571C9.0076 18.5677 9.01293 18.5657 9.01851 18.565L9.03346 18.5562L9.1172 18.5088C9.1231 18.5081 9.12867 18.5058 9.13348 18.5023C9.13829 18.4988 9.14214 18.4942 9.14464 18.4888C9.27954 18.3764 9.42443 18.2727 9.54809 18.149C11.3617 16.3379 16.107 11.5877 17.9169 9.78026C17.9668 9.7303 18.0218 9.68782 18.0743 9.6416C18.0929 9.72709 18.1192 9.8107 18.153 9.89142C18.6718 10.8328 18.9924 11.8704 19.0948 12.9404C19.1967 13.8684 19.1431 14.8068 18.9361 15.7171C18.7205 16.6621 18.3286 17.558 17.7807 18.3576C17.7411 18.4364 17.7133 18.5206 17.6983 18.6074C16.6765 19.7216 12.6396 23.6612 11.2106 24.2445C7.72195 25.6722 3.64499 24.5443 1.5478 21.4628C-0.394508 18.6087 -0.490677 15.6209 1.18308 12.5944L1.24553 12.477L1.35544 12.452Z" fill="#3A8DCC"/>
<path d="M17.6943 18.5993C17.7094 18.5125 17.7371 18.4283 17.7767 18.3495C18.3245 17.5498 18.7165 16.654 18.9321 15.709C19.139 14.7987 19.1927 13.8602 19.0908 12.9323C18.9884 11.8623 18.6678 10.8246 18.149 9.88329C18.1152 9.80257 18.0889 9.71896 18.0703 9.63347C19.1447 8.48382 20.5444 7.68942 22.0823 7.35642C25.7346 6.53578 29.3956 8.21328 31.0757 11.5583C32.3972 14.1814 32.2735 16.8244 30.8258 19.3925C30.7711 19.469 30.7092 19.5401 30.641 19.6048C30.6947 19.4075 30.7347 19.2051 30.8046 19.0128C31.045 18.322 31.1281 17.5863 31.0481 16.8594C30.9817 16.2209 30.7885 15.6022 30.4798 15.0395C30.06 14.2224 29.4208 13.5385 28.6337 13.0647C27.7713 12.5388 26.7694 12.2874 25.7609 12.344C24.8803 12.3914 24.0496 12.6225 23.3239 13.1521C23.214 13.2321 23.1128 13.3245 23.0066 13.4107L22.8817 13.4781L18.0928 18.2246C17.9604 18.3445 17.828 18.4707 17.6943 18.5993Z" fill="#276EB5"/>
<path d="M1.35587 12.4528L1.24219 12.4666C1.43704 12.2018 1.63067 11.9357 1.82428 11.6709L1.35587 12.4528Z" fill="#6AA8C6"/>
<path d="M2.02918 11.4492L1.87305 11.6141L2.02918 11.4492Z" fill="#6AA8C6"/>
<path d="M2.13853 11.3242C2.10106 11.3667 2.06482 11.4104 2.02734 11.4491C2.06482 11.4104 2.09731 11.3667 2.13853 11.3242Z" fill="#6AA8C6"/>
<path d="M22.8828 13.4737L23.0077 13.4062L22.8828 13.4737Z" fill="#2954A1"/>
<path d="M2.35519 11.0879L2.30273 11.1391L2.35519 11.0879Z" fill="#6AA8C6"/>
<path d="M2.3005 11.1396L2.24805 11.1921L2.3005 11.1396Z" fill="#6AA8C6"/>
<path d="M2.24782 11.1924L2.19531 11.2436L2.24782 11.1924Z" fill="#6AA8C6"/>
<path d="M2.19448 11.2412L2.14453 11.2974L2.19448 11.2412Z" fill="#6AA8C6"/>
<path d="M1.87545 11.6162L1.82422 11.6712L1.87545 11.6162Z" fill="#6AA8C6"/>
<path d="M9.13975 18.4932C9.13725 18.4986 9.1334 18.5032 9.12859 18.5067C9.12378 18.5102 9.11821 18.5124 9.1123 18.5131L9.13975 18.4932Z" fill="#5DC3E2"/>
<path d="M9.02868 18.5596L9.01367 18.5683L9.02868 18.5596Z" fill="#5DC3E2"/>
</g>
<defs>
<clipPath id="clip0_1427_878">
<rect width="32" height="24.8491" fill="white"/>
</clipPath>
</defs>
</svg>
