<svg width="113" height="113" viewBox="0 0 113 113" fill="none" xmlns="http://www.w3.org/2000/svg">
<path d="M56.3381 103.401C30.5011 103.401 9.55737 82.4576 9.55737 56.6206C9.55737 30.7836 30.5011 9.83984 56.3381 9.83984C82.1752 9.83984 103.119 30.7836 103.119 56.6206C103.119 82.4576 82.1752 103.401 56.3381 103.401ZM56.3381 94.0452C66.2638 94.0452 75.7829 90.1023 82.8013 83.0838C89.8198 76.0653 93.7628 66.5462 93.7628 56.6206C93.7628 46.695 89.8198 37.1759 82.8013 30.1574C75.7829 23.1389 66.2638 19.196 56.3381 19.196C46.4125 19.196 36.8934 23.1389 29.8749 30.1574C22.8565 37.1759 18.9135 46.695 18.9135 56.6206C18.9135 66.5462 22.8565 76.0653 29.8749 83.0838C36.8934 90.1023 46.4125 94.0452 56.3381 94.0452ZM39.9649 65.9768H65.6943C66.3146 65.9768 66.9096 65.7303 67.3482 65.2917C67.7869 64.853 68.0333 64.2581 68.0333 63.6377C68.0333 63.0174 67.7869 62.4224 67.3482 61.9838C66.9096 61.5451 66.3146 61.2987 65.6943 61.2987H46.982C43.8802 61.2987 40.9055 60.0665 38.7122 57.8732C36.519 55.68 35.2868 52.7052 35.2868 49.6035C35.2868 46.5017 36.519 43.527 38.7122 41.3337C40.9055 39.1405 43.8802 37.9083 46.982 37.9083H51.6601V28.5521H61.0162V37.9083H72.7114V47.2645H46.982C46.3616 47.2645 45.7667 47.5109 45.328 47.9495C44.8894 48.3882 44.6429 48.9831 44.6429 49.6035C44.6429 50.2238 44.8894 50.8188 45.328 51.2574C45.7667 51.6961 46.3616 51.9425 46.982 51.9425H65.6943C68.7961 51.9425 71.7708 53.1747 73.964 55.368C76.1573 57.5612 77.3895 60.536 77.3895 63.6377C77.3895 66.7395 76.1573 69.7142 73.964 71.9075C71.7708 74.1007 68.7961 75.3329 65.6943 75.3329H61.0162V84.6891H51.6601V75.3329H39.9649V65.9768Z" fill="white"/>
</svg>
