<svg width="429" height="406" viewBox="0 0 429 406" fill="none" xmlns="http://www.w3.org/2000/svg">
<path d="M12.074 392.126C10.898 392.126 9.818 391.85 8.834 391.298C7.85 390.746 7.07 389.984 6.494 389.012C5.918 388.028 5.63 386.918 5.63 385.682C5.63 384.458 5.918 383.36 6.494 382.388C7.07 381.404 7.85 380.636 8.834 380.084C9.818 379.532 10.898 379.256 12.074 379.256C13.262 379.256 14.342 379.532 15.314 380.084C16.298 380.636 17.072 381.404 17.636 382.388C18.212 383.36 18.5 384.458 18.5 385.682C18.5 386.918 18.212 388.028 17.636 389.012C17.072 389.984 16.298 390.746 15.314 391.298C14.33 391.85 13.25 392.126 12.074 392.126ZM12.074 389.876C12.83 389.876 13.496 389.708 14.072 389.372C14.648 389.024 15.098 388.532 15.422 387.896C15.746 387.26 15.908 386.522 15.908 385.682C15.908 384.842 15.746 384.11 15.422 383.486C15.098 382.85 14.648 382.364 14.072 382.028C13.496 381.692 12.83 381.524 12.074 381.524C11.318 381.524 10.646 381.692 10.058 382.028C9.482 382.364 9.032 382.85 8.708 383.486C8.384 384.11 8.222 384.842 8.222 385.682C8.222 386.522 8.384 387.26 8.708 387.896C9.032 388.532 9.482 389.024 10.058 389.372C10.646 389.708 11.318 389.876 12.074 389.876Z" fill="#1B76D8"/>
<path d="M11.762 18.002H15.902V20H9.242V7.436H11.762V18.002Z" fill="#1B76D8"/>
<path d="M395.746 375.156C396.898 374.196 397.816 373.398 398.5 372.762C399.184 372.114 399.754 371.442 400.21 370.746C400.666 370.05 400.894 369.366 400.894 368.694C400.894 368.082 400.75 367.602 400.462 367.254C400.174 366.906 399.73 366.732 399.13 366.732C398.53 366.732 398.068 366.936 397.744 367.344C397.42 367.74 397.252 368.286 397.24 368.982H394.792C394.84 367.542 395.266 366.45 396.07 365.706C396.886 364.962 397.918 364.59 399.166 364.59C400.534 364.59 401.584 364.956 402.316 365.688C403.048 366.408 403.414 367.362 403.414 368.55C403.414 369.486 403.162 370.38 402.658 371.232C402.154 372.084 401.578 372.828 400.93 373.464C400.282 374.088 399.436 374.844 398.392 375.732H403.702V377.82H394.81V375.948L395.746 375.156ZM405.182 375.444V373.464L411.068 365.04H414.002V373.248H415.586V375.444H414.002V378H411.482V375.444H405.182ZM411.644 367.74L407.954 373.248H411.644V367.74ZM423.094 367.884C423.85 367.884 424.522 368.052 425.11 368.388C425.698 368.712 426.154 369.198 426.478 369.846C426.814 370.482 426.982 371.25 426.982 372.15V378H424.462V372.492C424.462 371.7 424.264 371.094 423.868 370.674C423.472 370.242 422.932 370.026 422.248 370.026C421.552 370.026 421 370.242 420.592 370.674C420.196 371.094 419.998 371.7 419.998 372.492V378H417.478V364.68H419.998V369.27C420.322 368.838 420.754 368.502 421.294 368.262C421.834 368.01 422.434 367.884 423.094 367.884Z" fill="#1B76D8"/>
<path d="M304.324 392H302.364L297.926 385.294V392H295.966V382.214H297.926L302.364 388.934V382.214H304.324V392ZM308.221 382.228V392H306.261V382.228H308.221ZM316.961 385.168C316.737 384.757 316.429 384.445 316.037 384.23C315.645 384.015 315.188 383.908 314.665 383.908C314.087 383.908 313.573 384.039 313.125 384.3C312.677 384.561 312.327 384.935 312.075 385.42C311.823 385.905 311.697 386.465 311.697 387.1C311.697 387.753 311.823 388.323 312.075 388.808C312.337 389.293 312.696 389.667 313.153 389.928C313.611 390.189 314.143 390.32 314.749 390.32C315.496 390.32 316.107 390.124 316.583 389.732C317.059 389.331 317.372 388.775 317.521 388.066H314.161V386.568H319.453V388.276C319.323 388.957 319.043 389.587 318.613 390.166C318.184 390.745 317.629 391.211 316.947 391.566C316.275 391.911 315.519 392.084 314.679 392.084C313.737 392.084 312.883 391.874 312.117 391.454C311.361 391.025 310.764 390.432 310.325 389.676C309.896 388.92 309.681 388.061 309.681 387.1C309.681 386.139 309.896 385.28 310.325 384.524C310.764 383.759 311.361 383.166 312.117 382.746C312.883 382.317 313.732 382.102 314.665 382.102C315.767 382.102 316.723 382.373 317.535 382.914C318.347 383.446 318.907 384.197 319.215 385.168H316.961ZM329.01 382.228V392H327.05V387.842H322.864V392H320.904V382.228H322.864V386.246H327.05V382.228H329.01ZM337.589 382.228V383.81H334.985V392H333.025V383.81H330.421V382.228H337.589Z" fill="#68D5B2"/>
<path d="M70.62 382.228V392H68.66V385.644L66.042 392H64.558L61.926 385.644V392H59.966V382.228H62.192L65.3 389.494L68.408 382.228H70.62ZM77.0938 392.098C76.1791 392.098 75.3391 391.883 74.5738 391.454C73.8085 391.025 73.2018 390.432 72.7538 389.676C72.3058 388.911 72.0818 388.047 72.0818 387.086C72.0818 386.134 72.3058 385.28 72.7538 384.524C73.2018 383.759 73.8085 383.161 74.5738 382.732C75.3391 382.303 76.1791 382.088 77.0938 382.088C78.0178 382.088 78.8578 382.303 79.6138 382.732C80.3791 383.161 80.9811 383.759 81.4198 384.524C81.8678 385.28 82.0918 386.134 82.0918 387.086C82.0918 388.047 81.8678 388.911 81.4198 389.676C80.9811 390.432 80.3791 391.025 79.6138 391.454C78.8485 391.883 78.0085 392.098 77.0938 392.098ZM77.0938 390.348C77.6818 390.348 78.1998 390.217 78.6478 389.956C79.0958 389.685 79.4458 389.303 79.6978 388.808C79.9498 388.313 80.0758 387.739 80.0758 387.086C80.0758 386.433 79.9498 385.863 79.6978 385.378C79.4458 384.883 79.0958 384.505 78.6478 384.244C78.1998 383.983 77.6818 383.852 77.0938 383.852C76.5058 383.852 75.9831 383.983 75.5258 384.244C75.0778 384.505 74.7278 384.883 74.4758 385.378C74.2238 385.863 74.0978 386.433 74.0978 387.086C74.0978 387.739 74.2238 388.313 74.4758 388.808C74.7278 389.303 75.0778 389.685 75.5258 389.956C75.9831 390.217 76.5058 390.348 77.0938 390.348ZM88.59 392L86.434 388.192H85.51V392H83.55V382.228H87.218C87.974 382.228 88.618 382.363 89.15 382.634C89.682 382.895 90.0787 383.255 90.34 383.712C90.6107 384.16 90.746 384.664 90.746 385.224C90.746 385.868 90.5593 386.451 90.186 386.974C89.8127 387.487 89.2573 387.842 88.52 388.038L90.858 392H88.59ZM85.51 386.722H87.148C87.68 386.722 88.0767 386.596 88.338 386.344C88.5993 386.083 88.73 385.723 88.73 385.266C88.73 384.818 88.5993 384.473 88.338 384.23C88.0767 383.978 87.68 383.852 87.148 383.852H85.51V386.722ZM100.877 392H98.9167L94.4787 385.294V392H92.5187V382.214H94.4787L98.9167 388.934V382.214H100.877V392ZM104.774 382.228V392H102.814V382.228H104.774ZM115.068 392H113.108L108.67 385.294V392H106.71V382.214H108.67L113.108 388.934V382.214H115.068V392ZM123.809 385.168C123.585 384.757 123.277 384.445 122.885 384.23C122.493 384.015 122.036 383.908 121.513 383.908C120.934 383.908 120.421 384.039 119.973 384.3C119.525 384.561 119.175 384.935 118.923 385.42C118.671 385.905 118.545 386.465 118.545 387.1C118.545 387.753 118.671 388.323 118.923 388.808C119.184 389.293 119.544 389.667 120.001 389.928C120.458 390.189 120.99 390.32 121.597 390.32C122.344 390.32 122.955 390.124 123.431 389.732C123.907 389.331 124.22 388.775 124.369 388.066H121.009V386.568H126.301V388.276C126.17 388.957 125.89 389.587 125.461 390.166C125.032 390.745 124.476 391.211 123.795 391.566C123.123 391.911 122.367 392.084 121.527 392.084C120.584 392.084 119.73 391.874 118.965 391.454C118.209 391.025 117.612 390.432 117.173 389.676C116.744 388.92 116.529 388.061 116.529 387.1C116.529 386.139 116.744 385.28 117.173 384.524C117.612 383.759 118.209 383.166 118.965 382.746C119.73 382.317 120.58 382.102 121.513 382.102C122.614 382.102 123.571 382.373 124.383 382.914C125.195 383.446 125.755 384.197 126.063 385.168H123.809Z" fill="#1B76D8"/>
<g clip-path="url(#clip0_1200:5782)">
<path d="M12.0002 372H387" stroke="#D6EDFF" stroke-width="2" stroke-linecap="round" stroke-linejoin="round"/>
<path d="M381 365L388 372L381 379" stroke="#D6EDFF" stroke-width="2" stroke-linecap="round" stroke-linejoin="round"/>
</g>
<path d="M12 372L12 29" stroke="#D6EDFF" stroke-width="2" stroke-linecap="round" stroke-linejoin="round"/>
<path d="M5 35L12 28L19 35" stroke="#D6EDFF" stroke-width="2" stroke-linecap="round" stroke-linejoin="round"/>
<rect x="26" y="352" width="1" height="20" rx="0.5" fill="#D6EDFF"/>
<rect x="41" y="352" width="1" height="20" rx="0.5" fill="#D6EDFF"/>
<rect x="56" y="352" width="1" height="20" rx="0.5" fill="#D6EDFF"/>
<rect x="71" y="352" width="1" height="20" rx="0.5" fill="#D6EDFF"/>
<rect x="86" y="352" width="1" height="20" rx="0.5" fill="#D6EDFF"/>
<rect x="101" y="352" width="1" height="20" rx="0.5" fill="#D6EDFF"/>
<rect x="116" y="352" width="1" height="20" rx="0.5" fill="#D6EDFF"/>
<rect x="131" y="352" width="1" height="20" rx="0.5" fill="#D6EDFF"/>
<rect x="146" y="352" width="1" height="20" rx="0.5" fill="#D6EDFF"/>
<rect x="161" y="352" width="1" height="20" rx="0.5" fill="#D6EDFF"/>
<rect x="176" y="352" width="1" height="20" rx="0.5" fill="#D6EDFF"/>
<rect x="191" y="352" width="1" height="20" rx="0.5" fill="#D6EDFF"/>
<rect x="206" y="352" width="1" height="20" rx="0.5" fill="#D6EDFF"/>
<path d="M292 331C292 329.343 293.343 328 295 328C296.657 328 298 329.343 298 331V373H292V331Z" fill="#68D5B2"/>
<path d="M308 331C308 329.343 309.343 328 311 328C312.657 328 314 329.343 314 331V373H308V331Z" fill="#68D5B2"/>
<path d="M324 24C324 22.3432 325.343 21 327 21C328.657 21 330 22.3431 330 24V373H324V24Z" fill="#68D5B2"/>
<path d="M67 237C67 235.343 68.3431 234 70 234C71.6569 234 73 235.343 73 237V373H67V237Z" fill="#1B76D8"/>
<path d="M83 237C83 235.343 84.3431 234 86 234C87.6569 234 89 235.343 89 237V373H83V237Z" fill="#1B76D8"/>
<path d="M99 78C99 76.3431 100.343 75 102 75C103.657 75 105 76.3431 105 78V373H99V78Z" fill="#1B76D8"/>
<path d="M113 78C113 76.3431 114.343 75 116 75C117.657 75 119 76.3431 119 78V373H113V78Z" fill="#1B76D8"/>
<path d="M338 331C338 329.343 339.343 328 341 328C342.657 328 344 329.343 344 331V373H338V331Z" fill="#68D5B2"/>
<defs>
<clipPath id="clip0_1200:5782">
<rect width="24" height="379" fill="white" transform="translate(389 360) rotate(90)"/>
</clipPath>
</defs>
</svg>
