<svg width="425" height="392" viewBox="0 0 425 392" fill="none" xmlns="http://www.w3.org/2000/svg">
<path d="M7.762 18.002H11.902V20H5.242V7.436H7.762V18.002Z" fill="#1B76D8"/>
<path d="M391.746 367.156C392.898 366.196 393.816 365.398 394.5 364.762C395.184 364.114 395.754 363.442 396.21 362.746C396.666 362.05 396.894 361.366 396.894 360.694C396.894 360.082 396.75 359.602 396.462 359.254C396.174 358.906 395.73 358.732 395.13 358.732C394.53 358.732 394.068 358.936 393.744 359.344C393.42 359.74 393.252 360.286 393.24 360.982H390.792C390.84 359.542 391.266 358.45 392.07 357.706C392.886 356.962 393.918 356.59 395.166 356.59C396.534 356.59 397.584 356.956 398.316 357.688C399.048 358.408 399.414 359.362 399.414 360.55C399.414 361.486 399.162 362.38 398.658 363.232C398.154 364.084 397.578 364.828 396.93 365.464C396.282 366.088 395.436 366.844 394.392 367.732H399.702V369.82H390.81V367.948L391.746 367.156ZM401.182 367.444V365.464L407.068 357.04H410.002V365.248H411.586V367.444H410.002V370H407.482V367.444H401.182ZM407.644 359.74L403.954 365.248H407.644V359.74ZM419.094 359.884C419.85 359.884 420.522 360.052 421.11 360.388C421.698 360.712 422.154 361.198 422.478 361.846C422.814 362.482 422.982 363.25 422.982 364.15V370H420.462V364.492C420.462 363.7 420.264 363.094 419.868 362.674C419.472 362.242 418.932 362.026 418.248 362.026C417.552 362.026 417 362.242 416.592 362.674C416.196 363.094 415.998 363.7 415.998 364.492V370H413.478V356.68H415.998V361.27C416.322 360.838 416.754 360.502 417.294 360.262C417.834 360.01 418.434 359.884 419.094 359.884Z" fill="#1B76D8"/>
<path d="M300.324 385H298.364L293.926 378.294V385H291.966V375.214H293.926L298.364 381.934V375.214H300.324V385ZM304.221 375.228V385H302.261V375.228H304.221ZM312.961 378.168C312.737 377.757 312.429 377.445 312.037 377.23C311.645 377.015 311.188 376.908 310.665 376.908C310.087 376.908 309.573 377.039 309.125 377.3C308.677 377.561 308.327 377.935 308.075 378.42C307.823 378.905 307.697 379.465 307.697 380.1C307.697 380.753 307.823 381.323 308.075 381.808C308.337 382.293 308.696 382.667 309.153 382.928C309.611 383.189 310.143 383.32 310.749 383.32C311.496 383.32 312.107 383.124 312.583 382.732C313.059 382.331 313.372 381.775 313.521 381.066H310.161V379.568H315.453V381.276C315.323 381.957 315.043 382.587 314.613 383.166C314.184 383.745 313.629 384.211 312.947 384.566C312.275 384.911 311.519 385.084 310.679 385.084C309.737 385.084 308.883 384.874 308.117 384.454C307.361 384.025 306.764 383.432 306.325 382.676C305.896 381.92 305.681 381.061 305.681 380.1C305.681 379.139 305.896 378.28 306.325 377.524C306.764 376.759 307.361 376.166 308.117 375.746C308.883 375.317 309.732 375.102 310.665 375.102C311.767 375.102 312.723 375.373 313.535 375.914C314.347 376.446 314.907 377.197 315.215 378.168H312.961ZM325.01 375.228V385H323.05V380.842H318.864V385H316.904V375.228H318.864V379.246H323.05V375.228H325.01ZM333.589 375.228V376.81H330.985V385H329.025V376.81H326.421V375.228H333.589Z" fill="#68D5B2"/>
<path d="M66.62 373.228V383H64.66V376.644L62.042 383H60.558L57.926 376.644V383H55.966V373.228H58.192L61.3 380.494L64.408 373.228H66.62ZM73.0938 383.098C72.1791 383.098 71.3391 382.883 70.5738 382.454C69.8085 382.025 69.2018 381.432 68.7538 380.676C68.3058 379.911 68.0818 379.047 68.0818 378.086C68.0818 377.134 68.3058 376.28 68.7538 375.524C69.2018 374.759 69.8085 374.161 70.5738 373.732C71.3391 373.303 72.1791 373.088 73.0938 373.088C74.0178 373.088 74.8578 373.303 75.6138 373.732C76.3791 374.161 76.9811 374.759 77.4198 375.524C77.8678 376.28 78.0918 377.134 78.0918 378.086C78.0918 379.047 77.8678 379.911 77.4198 380.676C76.9811 381.432 76.3791 382.025 75.6138 382.454C74.8485 382.883 74.0085 383.098 73.0938 383.098ZM73.0938 381.348C73.6818 381.348 74.1998 381.217 74.6478 380.956C75.0958 380.685 75.4458 380.303 75.6978 379.808C75.9498 379.313 76.0758 378.739 76.0758 378.086C76.0758 377.433 75.9498 376.863 75.6978 376.378C75.4458 375.883 75.0958 375.505 74.6478 375.244C74.1998 374.983 73.6818 374.852 73.0938 374.852C72.5058 374.852 71.9831 374.983 71.5258 375.244C71.0778 375.505 70.7278 375.883 70.4758 376.378C70.2238 376.863 70.0978 377.433 70.0978 378.086C70.0978 378.739 70.2238 379.313 70.4758 379.808C70.7278 380.303 71.0778 380.685 71.5258 380.956C71.9831 381.217 72.5058 381.348 73.0938 381.348ZM84.59 383L82.434 379.192H81.51V383H79.55V373.228H83.218C83.974 373.228 84.618 373.363 85.15 373.634C85.682 373.895 86.0787 374.255 86.34 374.712C86.6107 375.16 86.746 375.664 86.746 376.224C86.746 376.868 86.5593 377.451 86.186 377.974C85.8127 378.487 85.2573 378.842 84.52 379.038L86.858 383H84.59ZM81.51 377.722H83.148C83.68 377.722 84.0767 377.596 84.338 377.344C84.5993 377.083 84.73 376.723 84.73 376.266C84.73 375.818 84.5993 375.473 84.338 375.23C84.0767 374.978 83.68 374.852 83.148 374.852H81.51V377.722ZM96.8767 383H94.9167L90.4787 376.294V383H88.5187V373.214H90.4787L94.9167 379.934V373.214H96.8767V383ZM100.774 373.228V383H98.8137V373.228H100.774ZM111.068 383H109.108L104.67 376.294V383H102.71V373.214H104.67L109.108 379.934V373.214H111.068V383ZM119.809 376.168C119.585 375.757 119.277 375.445 118.885 375.23C118.493 375.015 118.036 374.908 117.513 374.908C116.934 374.908 116.421 375.039 115.973 375.3C115.525 375.561 115.175 375.935 114.923 376.42C114.671 376.905 114.545 377.465 114.545 378.1C114.545 378.753 114.671 379.323 114.923 379.808C115.184 380.293 115.544 380.667 116.001 380.928C116.458 381.189 116.99 381.32 117.597 381.32C118.344 381.32 118.955 381.124 119.431 380.732C119.907 380.331 120.22 379.775 120.369 379.066H117.009V377.568H122.301V379.276C122.17 379.957 121.89 380.587 121.461 381.166C121.032 381.745 120.476 382.211 119.795 382.566C119.123 382.911 118.367 383.084 117.527 383.084C116.584 383.084 115.73 382.874 114.965 382.454C114.209 382.025 113.612 381.432 113.173 380.676C112.744 379.92 112.529 379.061 112.529 378.1C112.529 377.139 112.744 376.28 113.173 375.524C113.612 374.759 114.209 374.166 114.965 373.746C115.73 373.317 116.58 373.102 117.513 373.102C118.614 373.102 119.571 373.373 120.383 373.914C121.195 374.446 121.755 375.197 122.063 376.168H119.809Z" fill="#1B76D8"/>
<g clip-path="url(#clip0_1200:5725)">
<path d="M8.00023 364H383" stroke="#D6EDFF" stroke-width="2" stroke-linecap="round" stroke-linejoin="round"/>
<path d="M377 357L384 364L377 371" stroke="#D6EDFF" stroke-width="2" stroke-linecap="round" stroke-linejoin="round"/>
</g>
<g clip-path="url(#clip1_1200:5725)">
<path d="M8.00001 364L8 29" stroke="#D6EDFF" stroke-width="2" stroke-linecap="round" stroke-linejoin="round"/>
<path d="M1 35L8 28L15 35" stroke="#D6EDFF" stroke-width="2" stroke-linecap="round" stroke-linejoin="round"/>
<path d="M8.074 385.126C6.898 385.126 5.818 384.85 4.834 384.298C3.85 383.746 3.07 382.984 2.494 382.012C1.918 381.028 1.63 379.918 1.63 378.682C1.63 377.458 1.918 376.36 2.494 375.388C3.07 374.404 3.85 373.636 4.834 373.084C5.818 372.532 6.898 372.256 8.074 372.256C9.262 372.256 10.342 372.532 11.314 373.084C12.298 373.636 13.072 374.404 13.636 375.388C14.212 376.36 14.5 377.458 14.5 378.682C14.5 379.918 14.212 381.028 13.636 382.012C13.072 382.984 12.298 383.746 11.314 384.298C10.33 384.85 9.25 385.126 8.074 385.126ZM8.074 382.876C8.83 382.876 9.496 382.708 10.072 382.372C10.648 382.024 11.098 381.532 11.422 380.896C11.746 380.26 11.908 379.522 11.908 378.682C11.908 377.842 11.746 377.11 11.422 376.486C11.098 375.85 10.648 375.364 10.072 375.028C9.496 374.692 8.83 374.524 8.074 374.524C7.318 374.524 6.646 374.692 6.058 375.028C5.482 375.364 5.032 375.85 4.708 376.486C4.384 377.11 4.222 377.842 4.222 378.682C4.222 379.522 4.384 380.26 4.708 380.896C5.032 381.532 5.482 382.024 6.058 382.372C6.646 382.708 7.318 382.876 8.074 382.876Z" fill="#1B76D8"/>
</g>
<rect x="22" y="344" width="1" height="20" rx="0.5" fill="#D6EDFF"/>
<rect x="37" y="344" width="1" height="20" rx="0.5" fill="#D6EDFF"/>
<rect x="52" y="344" width="1" height="20" rx="0.5" fill="#D6EDFF"/>
<rect x="67" y="344" width="1" height="20" rx="0.5" fill="#D6EDFF"/>
<rect x="82" y="344" width="1" height="20" rx="0.5" fill="#D6EDFF"/>
<rect x="97" y="344" width="1" height="20" rx="0.5" fill="#D6EDFF"/>
<rect x="112" y="344" width="1" height="20" rx="0.5" fill="#D6EDFF"/>
<rect x="127" y="344" width="1" height="20" rx="0.5" fill="#D6EDFF"/>
<rect x="142" y="344" width="1" height="20" rx="0.5" fill="#D6EDFF"/>
<rect x="157" y="344" width="1" height="20" rx="0.5" fill="#D6EDFF"/>
<rect x="172" y="344" width="1" height="20" rx="0.5" fill="#D6EDFF"/>
<rect x="187" y="344" width="1" height="20" rx="0.5" fill="#D6EDFF"/>
<rect x="202" y="344" width="1" height="20" rx="0.5" fill="#D6EDFF"/>
<rect x="217" y="344" width="1" height="20" rx="0.5" fill="#D6EDFF"/>
<rect x="232" y="344" width="1" height="20" rx="0.5" fill="#D6EDFF"/>
<rect x="247" y="344" width="1" height="20" rx="0.5" fill="#D6EDFF"/>
<rect x="262" y="344" width="1" height="20" rx="0.5" fill="#D6EDFF"/>
<rect x="277" y="344" width="1" height="20" rx="0.5" fill="#D6EDFF"/>
<rect x="292" y="344" width="1" height="20" rx="0.5" fill="#D6EDFF"/>
<rect x="307" y="344" width="1" height="20" rx="0.5" fill="#D6EDFF"/>
<rect x="322" y="344" width="1" height="20" rx="0.5" fill="#D6EDFF"/>
<rect x="337" y="344" width="1" height="20" rx="0.5" fill="#D6EDFF"/>
<rect x="352" y="344" width="1" height="20" rx="0.5" fill="#D6EDFF"/>
<rect x="367" y="344" width="1" height="20" rx="0.5" fill="#D6EDFF"/>
<path d="M288 323C288 321.343 289.343 320 291 320C292.657 320 294 321.343 294 323V365H288V323Z" fill="#68D5B2"/>
<path d="M304 323C304 321.343 305.343 320 307 320C308.657 320 310 321.343 310 323V365H304V323Z" fill="#68D5B2"/>
<path d="M320 16C320 14.3432 321.343 13 323 13C324.657 13 326 14.3431 326 16V365H320V16Z" fill="#68D5B2"/>
<path d="M63 229C63 227.343 64.3431 226 66 226C67.6569 226 69 227.343 69 229V365H63V229Z" fill="#1B76D8"/>
<path d="M79 229C79 227.343 80.3431 226 82 226C83.6569 226 85 227.343 85 229V365H79V229Z" fill="#1B76D8"/>
<path d="M95 70C95 68.3431 96.3431 67 98 67C99.6569 67 101 68.3431 101 70V365H95V70Z" fill="#1B76D8"/>
<path d="M109 70C109 68.3431 110.343 67 112 67C113.657 67 115 68.3431 115 70V365H109V70Z" fill="#1B76D8"/>
<path d="M334 323C334 321.343 335.343 320 337 320C338.657 320 340 321.343 340 323V365H334V323Z" fill="#68D5B2"/>
<defs>
<clipPath id="clip0_1200:5725">
<rect width="24" height="379" fill="white" transform="translate(385 352) rotate(90)"/>
</clipPath>
<clipPath id="clip1_1200:5725">
<rect width="16" height="365" fill="white" transform="translate(0 27)"/>
</clipPath>
</defs>
</svg>
