<svg width="45" height="37" viewBox="0 0 45 37" fill="none" xmlns="http://www.w3.org/2000/svg">
<path d="M11.5228 16.6987L18.5561 2.52793V0.496094H10.4288L2.04092 18.9389C0.738462 21.648 0.113281 24.253 0.113281 26.7537C0.113281 29.4628 1.05105 31.7551 2.97869 33.6307C4.90633 35.5062 7.30286 36.444 10.2204 36.444C13.2942 36.444 15.7949 35.5062 17.7225 33.6307C19.6502 31.7551 20.588 29.4628 20.588 26.7537C20.588 24.0967 19.7544 21.8564 18.1393 19.9809C16.5243 18.1054 14.3361 17.0113 11.5749 16.7508L11.5228 16.6987ZM35.0192 16.7508L42.1046 2.58003V0.548192H33.9772L25.5373 18.991C24.2348 21.7001 23.6097 24.3051 23.6097 26.8058C23.6097 29.5149 24.5474 31.8072 26.4751 33.6828C28.4027 35.5583 30.7992 36.4961 33.7168 36.4961C36.7906 36.4961 39.2913 35.5583 41.2189 33.6828C43.1466 31.8072 44.0843 29.5149 44.0843 26.8058C44.0843 24.1488 43.2508 21.9085 41.5836 20.033C39.9165 18.1575 37.6762 17.0634 34.915 16.8029L35.0192 16.7508Z" fill="#1B76D8"/>
</svg>
