<svg width="15" height="16" viewBox="0 0 15 16" fill="none" xmlns="http://www.w3.org/2000/svg">
<path fill-rule="evenodd" clip-rule="evenodd" d="M1.8501 7.99961C1.8501 5.16461 4.0601 2.34961 7.5001 2.34961C10.2781 2.34961 11.6521 4.40561 12.2371 5.49961H10.5001C10.3675 5.49961 10.2403 5.55229 10.1465 5.64606C10.0528 5.73982 10.0001 5.867 10.0001 5.99961C10.0001 6.13222 10.0528 6.25939 10.1465 6.35316C10.2403 6.44693 10.3675 6.49961 10.5001 6.49961H13.5001C13.6327 6.49961 13.7599 6.44693 13.8537 6.35316C13.9474 6.25939 14.0001 6.13222 14.0001 5.99961V2.99961C14.0001 2.867 13.9474 2.73982 13.8537 2.64606C13.7599 2.55229 13.6327 2.49961 13.5001 2.49961C13.3675 2.49961 13.2403 2.55229 13.1465 2.64606C13.0528 2.73982 13.0001 2.867 13.0001 2.99961V4.81261C12.2961 3.57061 10.6661 1.34961 7.5001 1.34961C3.4371 1.34961 0.850098 4.68461 0.850098 7.99961C0.850098 11.3146 3.4371 14.6496 7.5001 14.6496C9.4441 14.6496 11.0621 13.8796 12.2141 12.7076C12.8254 12.0841 13.3103 11.3483 13.6421 10.5406C13.667 10.4799 13.6798 10.4148 13.6796 10.3492C13.6794 10.2835 13.6663 10.2185 13.641 10.1579C13.6157 10.0973 13.5787 10.0423 13.5321 9.99602C13.4856 9.94973 13.4303 9.91306 13.3696 9.88811C13.3089 9.86316 13.2438 9.85041 13.1781 9.85061C13.1125 9.8508 13.0475 9.86392 12.9869 9.88922C12.9263 9.91453 12.8713 9.95152 12.825 9.99808C12.7787 10.0446 12.742 10.0999 12.7171 10.1606C12.4345 10.8486 12.0216 11.4754 11.5011 12.0066C10.5301 12.9966 9.1651 13.6496 7.5001 13.6496C4.0601 13.6496 1.8501 10.8346 1.8501 7.99961Z" fill="#1B76D8"/>
<path fill-rule="evenodd" clip-rule="evenodd" d="M12.2141 12.7076C11.0621 13.8796 9.4441 14.6496 7.5001 14.6496C3.4371 14.6496 0.850098 11.3146 0.850098 7.99961C0.850098 4.68461 3.4371 1.34961 7.5001 1.34961C10.3373 1.34961 11.9409 3.13322 12.7501 4.39753C12.8439 4.54406 12.927 4.68362 13.0001 4.81261V2.99961C13.0001 2.867 13.0528 2.73982 13.1465 2.64606C13.2403 2.55229 13.3675 2.49961 13.5001 2.49961C13.6327 2.49961 13.7599 2.55229 13.8537 2.64606C13.9474 2.73982 14.0001 2.867 14.0001 2.99961V5.99961C14.0001 6.13222 13.9474 6.25939 13.8537 6.35316C13.7599 6.44693 13.6327 6.49961 13.5001 6.49961H10.5001C10.3675 6.49961 10.2403 6.44693 10.1465 6.35316C10.0528 6.25939 10.0001 6.13222 10.0001 5.99961C10.0001 5.867 10.0528 5.73982 10.1465 5.64606C10.2403 5.55229 10.3675 5.49961 10.5001 5.49961H12.2371C12.195 5.42088 12.1488 5.33717 12.0983 5.24961C11.4471 4.12035 10.0782 2.34961 7.5001 2.34961C4.0601 2.34961 1.8501 5.16461 1.8501 7.99961C1.8501 10.8346 4.0601 13.6496 7.5001 13.6496C9.1651 13.6496 10.5301 12.9966 11.5011 12.0066C12.0216 11.4754 12.4345 10.8486 12.7171 10.1606C12.742 10.0999 12.7787 10.0446 12.825 9.99808C12.8713 9.95152 12.9263 9.91453 12.9869 9.88922C13.0475 9.86392 13.1125 9.8508 13.1781 9.85061C13.2438 9.85041 13.3089 9.86316 13.3696 9.88811C13.4303 9.91306 13.4856 9.94973 13.5321 9.99602C13.5787 10.0423 13.6157 10.0973 13.641 10.1579C13.6663 10.2185 13.6794 10.2835 13.6796 10.3492C13.6798 10.4148 13.667 10.4799 13.6421 10.5406C13.3103 11.3483 12.8254 12.0841 12.2141 12.7076ZM11.3225 11.8316C11.8205 11.3234 12.2155 10.7238 12.4858 10.0656C12.5233 9.97452 12.5783 9.89167 12.6477 9.82182C12.7172 9.75197 12.7997 9.69649 12.8906 9.65853C12.9815 9.62058 13.0789 9.60089 13.1774 9.60061C13.2759 9.60032 13.3735 9.61944 13.4646 9.65686C13.5557 9.69429 13.6385 9.74929 13.7084 9.81873C13.7782 9.88818 13.8337 9.9707 13.8717 10.0616C13.9096 10.1525 13.9293 10.2499 13.9296 10.3484C13.9299 10.4469 13.9108 10.5445 13.8733 10.6356C13.5293 11.4731 13.0265 12.2361 12.3926 12.8826C11.1956 14.1005 9.51389 14.8996 7.5001 14.8996C3.28105 14.8996 0.600098 11.434 0.600098 7.99961C0.600098 4.56522 3.28105 1.09961 7.5001 1.09961C10.2291 1.09961 11.8605 2.68426 12.7501 3.94911V2.99961C12.7501 2.8007 12.8291 2.60993 12.9698 2.46928C13.1104 2.32863 13.3012 2.24961 13.5001 2.24961C13.699 2.24961 13.8898 2.32863 14.0304 2.46928C14.1711 2.60993 14.2501 2.8007 14.2501 2.99961V5.99961C14.2501 6.19852 14.1711 6.38929 14.0304 6.52994C13.8898 6.67059 13.699 6.74961 13.5001 6.74961H10.5001C10.3012 6.74961 10.1104 6.67059 9.96977 6.52994C9.82911 6.38929 9.7501 6.19852 9.7501 5.99961C9.7501 5.8007 9.82911 5.60993 9.96977 5.46928C10.1104 5.32863 10.3012 5.24961 10.5001 5.24961H11.8083C11.1484 4.15117 9.85208 2.59961 7.5001 2.59961C4.2153 2.59961 2.1001 5.2849 2.1001 7.99961C2.1001 10.7143 4.2153 13.3996 7.5001 13.3996C9.09548 13.3996 10.3968 12.7754 11.3225 11.8316Z" fill="#1B76D8"/>
</svg>
