<?xml version="1.0" encoding="utf-8"?>
<!-- Generator: Adobe Illustrator 25.0.0, SVG Export Plug-In . SVG Version: 6.00 Build 0)  -->
<svg version="1.1" id="Слой_1" xmlns="http://www.w3.org/2000/svg" xmlns:xlink="http://www.w3.org/1999/xlink" x="0px" y="0px"
	 viewBox="0 0 18 12.7" style="enable-background:new 0 0 18 12.7;" xml:space="preserve">
<style type="text/css">
	.st0{fill:#1B76D8;}
</style>
<path class="st0" d="M17.8,0.9l-5.5,5.4l5.5,5.4c0.1-0.2,0.2-0.4,0.2-0.7V1.6C18,1.3,17.9,1.1,17.8,0.9z"/>
<path class="st0" d="M16.4,0H1.6C1.3,0,1.1,0.1,0.9,0.2l7,6.9c0.6,0.6,1.6,0.6,2.2,0l7-6.9C16.9,0.1,16.7,0,16.4,0z"/>
<path class="st0" d="M0.2,0.9C0.1,1.1,0,1.3,0,1.6v9.5c0,0.2,0.1,0.5,0.2,0.7l5.5-5.4L0.2,0.9z"/>
<path class="st0" d="M11.6,7.1l-0.8,0.8c-1,1-2.7,1-3.7,0L6.4,7.1l-5.5,5.4c0.2,0.1,0.4,0.2,0.7,0.2h14.8c0.2,0,0.5-0.1,0.7-0.2
	L11.6,7.1z"/>
</svg>
