<?xml version="1.0" encoding="utf-8"?>
<!-- Generator: Adobe Illustrator 25.0.0, SVG Export Plug-In . SVG Version: 6.00 Build 0)  -->
<svg version="1.1" id="Слой_1" xmlns="http://www.w3.org/2000/svg" xmlns:xlink="http://www.w3.org/1999/xlink" x="0px" y="0px"
	 viewBox="0 0 14 19" style="enable-background:new 0 0 14 19;" xml:space="preserve">
<style type="text/css">
	.st0{fill:#1B76D8;}
</style>
<path class="st0" d="M7,0C3.1,0,0,3.2,0,7.2c0,5.6,6.3,11.4,6.6,11.7C6.7,19,6.9,19,7,19s0.3,0,0.4-0.1C7.7,18.6,14,12.8,14,7.2
	C14,3.2,10.9,0,7,0z M7,11.1c-2.1,0-3.9-1.8-3.9-4c0-2.2,1.7-4,3.9-4c2.1,0,3.9,1.8,3.9,4C10.9,9.3,9.1,11.1,7,11.1z"/>
</svg>
