<svg width="58" height="59" viewBox="0 0 58 59" fill="none" xmlns="http://www.w3.org/2000/svg">
<path d="M13.6946 8.27658C10.7631 11.8036 9.12533 16.2515 9.09284 20.8744C9.12533 25.4973 10.7631 29.9452 13.6946 33.4722C14.3308 34.2377 14.3331 35.3751 13.6243 36.074C12.924 36.7644 11.7925 36.7672 11.1492 36.0233C9.54165 34.1642 8.23771 32.0581 7.2895 29.7825C6.11335 26.9599 5.50781 23.9323 5.50781 20.8744C5.50781 17.8165 6.11335 14.7889 7.2895 11.9663C8.23771 9.69065 9.54165 7.58457 11.1492 5.72549C11.7925 4.98159 12.924 4.98434 13.6243 5.6748C14.3331 6.37362 14.3308 7.5111 13.6946 8.27658Z" fill="white"/>
<path d="M14.1184 27.0448C13.3044 25.09 12.8898 22.9919 12.899 20.8744C12.8978 18.758 13.316 16.6624 14.1296 14.7086C14.7144 13.3041 15.4952 11.993 16.4463 10.8133C17.0644 10.0465 18.2018 10.0546 18.8982 10.7511C19.6065 11.4594 19.5821 12.6047 18.978 13.4038C18.355 14.2278 17.8435 15.1339 17.4593 16.0987C16.8223 17.6166 16.4942 19.2462 16.4942 20.8923C16.4942 22.5385 16.8223 24.1681 17.4593 25.686C17.8475 26.6365 18.3577 27.5296 18.9751 28.3434C19.5817 29.1429 19.6057 30.2902 18.8961 30.9998C18.2001 31.6958 17.0639 31.7062 16.4438 30.9417C15.4879 29.7632 14.704 28.4513 14.1184 27.0448Z" fill="white"/>
<path d="M39.1056 31.1379C39.8037 31.836 40.9439 31.8436 41.5628 31.0744C42.5114 29.8952 43.2903 28.5853 43.8741 27.1826C44.6871 25.2291 45.1057 23.134 45.1057 21.018C45.1057 18.902 44.6871 16.807 43.8741 14.8534C43.2865 13.4417 42.5014 12.124 41.5445 10.939C40.9331 10.1818 39.8104 10.1854 39.1174 10.8686C38.4059 11.5701 38.426 12.7139 39.0286 13.5107C39.6519 14.335 40.1635 15.2413 40.5479 16.2064C41.185 17.7242 41.5132 19.3539 41.5132 21.0001C41.5132 22.6462 41.185 24.2759 40.5479 25.7937C40.1626 26.7592 39.6485 27.6646 39.0238 28.4901C38.4201 29.2878 38.3982 30.4306 39.1056 31.1379Z" fill="white"/>
<path d="M43.9848 5.69569C44.6854 4.9951 45.8265 4.98837 46.474 5.73829C48.0765 7.59423 49.3766 9.69587 50.3227 11.9663C51.4988 14.7889 52.1044 17.8165 52.1044 20.8744C52.1044 23.9323 51.4988 26.9599 50.3227 29.7825C49.3766 32.0529 48.0765 34.1545 46.474 36.0105C45.8265 36.7604 44.6854 36.7537 43.9848 36.0531C43.2781 35.3464 43.2899 34.2042 43.934 33.4401C45.206 31.9309 46.2439 30.2344 47.0092 28.4074C48.0085 26.0217 48.5232 23.461 48.5232 20.8744C48.5232 18.2878 48.0085 15.7271 47.0092 13.3413C46.2439 11.5143 45.206 9.81789 43.934 8.30865C43.2899 7.54453 43.2781 6.40232 43.9848 5.69569Z" fill="white"/>
<path fill-rule="evenodd" clip-rule="evenodd" d="M33.3304 23.8547C34.0217 22.8187 34.3326 21.5752 34.2102 20.3358C34.1185 19.4104 33.7888 18.5246 33.2532 17.7645C32.7176 17.0043 31.9943 16.3958 31.1538 15.9981C30.3132 15.6005 29.384 15.4272 28.4566 15.4951C27.5293 15.5631 26.6353 15.87 25.8617 16.3859C24.9693 16.9882 24.2709 17.8364 23.8508 18.8277C23.4584 19.8129 23.3614 20.8911 23.5719 21.9305C23.7823 22.97 24.291 23.9256 25.0358 24.6806L13.4222 50.7774C13.0153 51.6917 13.4318 52.7624 14.3496 53.1615C15.1899 53.5268 16.1575 53.2011 16.6147 52.4324C16.6147 52.4324 24.946 38.5409 26.1564 36.7443C27.3668 34.9477 30.196 34.9489 31.5425 36.7443C32.8891 38.5397 40.6836 52.2421 40.6836 52.2421C41.0856 53.1453 42.1405 53.5557 43.0472 53.1615C43.9649 52.7624 44.3814 51.6917 43.9745 50.7774L32.3609 24.6806C32.7079 24.4345 33.0324 24.1582 33.3304 23.8547ZM27.5852 19.6176C27.8315 19.3693 28.1425 19.1951 28.4829 19.1149C28.8217 19.0076 29.1854 19.0076 29.5242 19.1149C29.8502 19.2564 30.1345 19.4789 30.3501 19.7612C30.5361 20.0638 30.6355 20.4115 30.6374 20.7667C30.6282 21.2399 30.4361 21.6913 30.1013 22.026C29.7666 22.3607 29.3153 22.5528 28.842 22.562C28.4869 22.5602 28.1391 22.4608 27.8366 22.2748C27.5565 22.0593 27.3339 21.7721 27.1902 21.4489C27.0829 21.1101 27.0829 20.7464 27.1902 20.4076C27.2568 20.1165 27.3923 19.8456 27.5852 19.6176Z" fill="white"/>
</svg>
