<svg width="17" height="17" viewBox="0 0 17 17" fill="none" xmlns="http://www.w3.org/2000/svg">
<path d="M3.79979 16V5.20483H0.211696V16H3.79979ZM2.00621 3.73005C3.25744 3.73005 4.03627 2.9011 4.03627 1.8652C4.01296 0.805936 3.25749 0 2.02995 0C0.802608 0 0 0.805952 0 1.8652C0 2.90115 0.77864 3.73005 1.98278 3.73005H2.0061H2.00621ZM5.78579 16H9.37389V9.97146C9.37389 9.64882 9.3972 9.32651 9.49195 9.09587C9.75134 8.45125 10.3417 7.7836 11.3329 7.7836C12.6313 7.7836 13.1507 8.77355 13.1507 10.2248V15.9999H16.7386V9.81008C16.7386 6.49422 14.9684 4.95139 12.6077 4.95139C10.672 4.95139 9.82216 6.03334 9.35002 6.77026H9.37397V5.20461H5.78587C5.83296 6.21757 5.78587 15.9998 5.78587 15.9998L5.78579 16Z" fill="white"/>
</svg>
