<svg width="26" height="24" viewBox="0 0 26 24" fill="none" xmlns="http://www.w3.org/2000/svg">
<path d="M23.7864 6.5881C23.5271 5.62419 22.7671 4.86435 21.8033 4.6048C20.0426 4.12305 12.9997 4.12305 12.9997 4.12305C12.9997 4.12305 5.95708 4.12305 4.19638 4.58653C3.25114 4.84581 2.47263 5.62433 2.21335 6.5881C1.75 8.34866 1.75 11.9998 1.75 11.9998C1.75 11.9998 1.75 15.6694 2.21335 17.4116C2.4729 18.3753 3.2326 19.1352 4.19652 19.3947C5.97562 19.8766 13 19.8766 13 19.8766C13 19.8766 20.0426 19.8766 21.8033 19.4131C22.7673 19.1537 23.5271 18.3939 23.7866 17.4301C24.2499 15.6694 24.2499 12.0184 24.2499 12.0184C24.2499 12.0184 24.2684 8.34866 23.7864 6.5881ZM10.7574 15.3729V8.62675L16.614 11.9998L10.7574 15.3729Z" fill="#1B76D8"/>
</svg>
