<svg width="15" height="15" viewBox="0 0 15 15" fill="none" xmlns="http://www.w3.org/2000/svg">
<path d="M3.80074 14.0104H0.898242V4.66355H3.80074V14.0104ZM2.34793 3.38855C1.4198 3.38855 0.666992 2.6198 0.666992 1.69168C0.666992 1.24587 0.84409 0.818314 1.15933 0.503077C1.47456 0.18784 1.90212 0.0107422 2.34793 0.0107422C2.79374 0.0107422 3.2213 0.18784 3.53653 0.503077C3.85177 0.818314 4.02887 1.24587 4.02887 1.69168C4.02887 2.6198 3.27574 3.38855 2.34793 3.38855ZM14.6639 14.0104H11.7676V9.46043C11.7676 8.37605 11.7457 6.98543 10.2586 6.98543C8.74949 6.98543 8.51824 8.16355 8.51824 9.3823V14.0104H5.61887V4.66355H8.40262V5.93855H8.44324C8.83074 5.20418 9.77731 4.42918 11.1895 4.42918C14.127 4.42918 14.667 6.36355 14.667 8.87605V14.0104H14.6639Z" fill="#0868CB"/>
</svg>
