<svg width="14" height="12" viewBox="0 0 14 12" fill="none" xmlns="http://www.w3.org/2000/svg">
<path d="M13.4996 1.98321C13.0215 2.18946 12.5012 2.3379 11.9652 2.39571C12.5216 2.06514 12.9383 1.5429 13.1371 0.92696C12.615 1.23757 12.043 1.45537 11.4465 1.57071C11.1972 1.30419 10.8956 1.09187 10.5607 0.946971C10.2257 0.802077 9.86454 0.727716 9.49959 0.728522C8.02304 0.728522 6.83554 1.9254 6.83554 3.39415C6.83554 3.6004 6.86054 3.80665 6.90116 4.00508C4.69023 3.88946 2.71836 2.83321 1.40742 1.21602C1.16855 1.62401 1.04338 2.08856 1.04492 2.56133C1.04492 3.48633 1.51523 4.30196 2.23242 4.78165C1.80977 4.765 1.39702 4.64883 1.02773 4.44258V4.4754C1.02773 5.77071 1.94336 6.84415 3.16367 7.09102C2.93454 7.15054 2.69884 7.18099 2.46211 7.18165C2.28867 7.18165 2.12461 7.16446 1.95898 7.14102C2.29648 8.19727 3.27929 8.96446 4.4496 8.98946C3.53398 9.70665 2.38711 10.1285 1.1418 10.1285C0.918359 10.1285 0.712109 10.1207 0.498047 10.0957C1.6793 10.8535 3.08086 11.291 4.59023 11.291C9.49022 11.291 12.1715 7.23165 12.1715 3.70821C12.1715 3.59258 12.1715 3.47696 12.1637 3.36133C12.6824 2.98165 13.1371 2.51133 13.4996 1.98321Z" fill="#0868CB"/>
</svg>
